<svg width="480" height="192" viewBox="0 0 480 192" fill="none" xmlns="http://www.w3.org/2000/svg">
<g clip-path="url(#clip0_7_15)">
<path d="M5.50001 43.5C10.2584 43.5 10 48 10 52.9324V148.568C10 159.614 18.9543 168.568 30 168.568H140C144 168.568 145 171 145 173.5C145 178 144 178.568 140 178.568H25C11.1929 178.568 0 167.376 0 153.568V53.5684C0 45.0418 1.00001 43.5 5.50001 43.5Z" fill="#FFC709" fill-opacity="0.8"/>
<rect x="17" y="13" width="150" height="150" rx="10" fill="black"/>
<path d="M167.291 108.95H150.191V131H126.491V108.95H69.941V92.6L119.441 26H144.941L99.041 89.15H127.241V69.5H150.191V89.15H167.291V108.95Z" fill="white"/>
<path d="M208.9 85.4C215.567 85.4 220.933 87.4 225 91.4C229.133 95.4 231.2 101.333 231.2 109.2V140H215.6V111.6C215.6 107.333 214.667 104.167 212.8 102.1C210.933 99.9667 208.233 98.9 204.7 98.9C200.767 98.9 197.633 100.133 195.3 102.6C192.967 105 191.8 108.6 191.8 113.4V140H176.2V86.2H191.1V92.5C193.167 90.2333 195.733 88.5 198.8 87.3C201.867 86.0333 205.233 85.4 208.9 85.4ZM264.041 85.4C272.374 85.4 278.774 87.4 283.241 91.4C287.707 95.3333 289.941 101.3 289.941 109.3V140H275.341V133.3C272.407 138.3 266.941 140.8 258.941 140.8C254.807 140.8 251.207 140.1 248.141 138.7C245.141 137.3 242.841 135.367 241.241 132.9C239.641 130.433 238.841 127.633 238.841 124.5C238.841 119.5 240.707 115.567 244.441 112.7C248.241 109.833 254.074 108.4 261.941 108.4H274.341C274.341 105 273.307 102.4 271.241 100.6C269.174 98.7333 266.074 97.8 261.941 97.8C259.074 97.8 256.241 98.2667 253.441 99.2C250.707 100.067 248.374 101.267 246.441 102.8L240.841 91.9C243.774 89.8333 247.274 88.2333 251.341 87.1C255.474 85.9667 259.707 85.4 264.041 85.4ZM262.841 130.3C265.507 130.3 267.874 129.7 269.941 128.5C272.007 127.233 273.474 125.4 274.341 123V117.5H263.641C257.241 117.5 254.041 119.6 254.041 123.8C254.041 125.8 254.807 127.4 256.341 128.6C257.941 129.733 260.107 130.3 262.841 130.3ZM333.759 85.4C340.426 85.4 345.793 87.4 349.859 91.4C353.993 95.4 356.059 101.333 356.059 109.2V140H340.459V111.6C340.459 107.333 339.526 104.167 337.659 102.1C335.793 99.9667 333.093 98.9 329.559 98.9C325.626 98.9 322.493 100.133 320.159 102.6C317.826 105 316.659 108.6 316.659 113.4V140H301.059V86.2H315.959V92.5C318.026 90.2333 320.593 88.5 323.659 87.3C326.726 86.0333 330.093 85.4 333.759 85.4ZM393.786 140.8C388.053 140.8 382.886 139.633 378.286 137.3C373.753 134.9 370.186 131.6 367.586 127.4C365.053 123.2 363.786 118.433 363.786 113.1C363.786 107.767 365.053 103 367.586 98.8C370.186 94.6 373.753 91.3333 378.286 89C382.886 86.6 388.053 85.4 393.786 85.4C399.453 85.4 404.386 86.6 408.586 89C412.853 91.3333 415.953 94.7 417.886 99.1L405.786 105.6C402.986 100.667 398.953 98.2 393.686 98.2C389.619 98.2 386.253 99.5333 383.586 102.2C380.919 104.867 379.586 108.5 379.586 113.1C379.586 117.7 380.919 121.333 383.586 124C386.253 126.667 389.619 128 393.686 128C399.019 128 403.053 125.533 405.786 120.6L417.886 127.2C415.953 131.467 412.853 134.8 408.586 137.2C404.386 139.6 399.453 140.8 393.786 140.8ZM475.884 113.3C475.884 113.5 475.784 114.9 475.584 117.5H434.884C435.618 120.833 437.351 123.467 440.084 125.4C442.818 127.333 446.218 128.3 450.284 128.3C453.084 128.3 455.551 127.9 457.684 127.1C459.884 126.233 461.918 124.9 463.784 123.1L472.084 132.1C467.018 137.9 459.618 140.8 449.884 140.8C443.818 140.8 438.451 139.633 433.784 137.3C429.118 134.9 425.518 131.6 422.984 127.4C420.451 123.2 419.184 118.433 419.184 113.1C419.184 107.833 420.418 103.1 422.884 98.9C425.418 94.6333 428.851 91.3333 433.184 89C437.584 86.6 442.484 85.4 447.884 85.4C453.151 85.4 457.918 86.5333 462.184 88.8C466.451 91.0667 469.784 94.3333 472.184 98.6C474.651 102.8 475.884 107.7 475.884 113.3ZM447.984 97.2C444.451 97.2 441.484 98.2 439.084 100.2C436.684 102.2 435.218 104.933 434.684 108.4H461.184C460.651 105 459.184 102.3 456.784 100.3C454.384 98.2333 451.451 97.2 447.984 97.2Z" fill="black"/>
</g>
<defs>
<clipPath id="clip0_7_15">
<rect width="480" height="192" fill="white"/>
</clipPath>
</defs>
</svg>
